REM DIRINDEX 1\2,1\3,1\5,1\4\6,1\4\7
REM DIRNAME folder01,folder02,folder03,folder04,folder05,folder06,folder07
TITLE ""
FILE "Disk3Track14.mp3" MP3
  TRACK 01 AUDIO
    TITLE "2:cjc065_1246"
    INDEX 01 00:00:00
  TRACK 02 AUDIO
    TITLE "2:cjc065_1247"
    INDEX 01 00:08:11
  TRACK 03 AUDIO
    TITLE "2:cjc065_1248"
    INDEX 01 00:22:64
  TRACK 04 AUDIO
    TITLE "2:cjc065_1249"
    INDEX 01 00:34:22
  TRACK 05 AUDIO
    TITLE "0:"
    INDEX 01 00:46:13
